<?xml version="1.0" standalone="no"?>
<!DOCTYPE svg PUBLIC "-//W3C//DTD SVG 20010904//EN"
 "http://www.w3.org/TR/2001/REC-SVG-20010904/DTD/svg10.dtd">
<svg version="1.0" xmlns="http://www.w3.org/2000/svg"
 width="984.000000pt" height="984.000000pt" viewBox="0 0 984.000000 984.000000"
 preserveAspectRatio="xMidYMid meet">
<metadata>
Created by potrace 1.14, written by Peter Selinger 2001-2017
</metadata>
<g transform="translate(0.000000,984.000000) scale(0.100000,-0.100000)"
fill="#000000" stroke="none">
<path d="M4808 9835 c-2 -1 -43 -6 -93 -9 -49 -3 -106 -8 -125 -11 -19 -2 -61
-7 -94 -10 -32 -3 -68 -7 -80 -10 -11 -2 -43 -7 -71 -10 -27 -3 -58 -8 -67
-11 -9 -3 -32 -7 -50 -9 -18 -2 -44 -6 -58 -9 -14 -3 -38 -8 -55 -11 -16 -3
-39 -8 -50 -10 -11 -2 -33 -7 -50 -9 -16 -3 -97 -24 -180 -46 -82 -22 -159
-43 -170 -45 -11 -3 -65 -21 -120 -40 -55 -20 -108 -37 -117 -40 -9 -2 -25 -8
-35 -13 -10 -6 -21 -11 -25 -11 -15 -3 -45 -14 -178 -69 -114 -46 -196 -85
-445 -210 -16 -8 -42 -24 -57 -34 -16 -11 -28 -17 -28 -13 0 3 -26 -12 -59
-34 -32 -22 -61 -37 -65 -34 -3 4 -6 1 -6 -5 0 -7 -7 -12 -15 -12 -8 0 -15 -4
-15 -10 0 -5 -6 -10 -13 -10 -7 0 -23 -9 -35 -20 -12 -11 -24 -20 -27 -20 -15
0 -306 -207 -313 -222 -2 -5 -8 -8 -13 -8 -8 0 -27 -14 -63 -45 -6 -5 -34 -28
-61 -50 -28 -22 -59 -48 -70 -58 -11 -11 -35 -31 -54 -45 -38 -30 -256 -237
-310 -296 -20 -21 -56 -60 -81 -86 -25 -25 -67 -73 -94 -106 -28 -32 -57 -66
-65 -75 -9 -9 -27 -31 -41 -49 -14 -18 -29 -38 -35 -44 -32 -36 -135 -176
-135 -185 0 -6 -3 -11 -7 -11 -5 0 -19 -17 -33 -38 -14 -20 -27 -39 -30 -42
-9 -9 -80 -120 -80 -125 0 -3 -9 -15 -20 -27 -11 -12 -20 -28 -20 -35 0 -7 -4
-13 -10 -13 -5 0 -10 -7 -10 -15 0 -8 -5 -15 -12 -15 -6 0 -8 -3 -5 -7 4 -3 1
-13 -6 -22 -8 -9 -25 -36 -38 -61 -13 -25 -27 -47 -30 -50 -3 -3 -14 -23 -25
-45 -11 -22 -45 -89 -76 -150 -88 -170 -224 -485 -211 -485 3 0 1 -6 -4 -12
-9 -12 -71 -180 -77 -210 -2 -7 -6 -20 -9 -28 -5 -13 -39 -126 -42 -140 -1 -3
-4 -14 -8 -25 -3 -11 -9 -31 -12 -45 -3 -14 -19 -81 -36 -150 -16 -69 -32
-136 -34 -150 -2 -14 -8 -50 -14 -80 -10 -50 -17 -93 -26 -160 -1 -14 -4 -25
-5 -25 -1 0 -3 -11 -5 -25 -9 -98 -17 -169 -21 -195 -19 -133 -25 -623 -11
-845 3 -58 7 -105 7 -105 1 0 3 -18 6 -40 6 -68 13 -119 18 -141 2 -11 7 -47
10 -79 4 -32 9 -74 13 -94 3 -20 6 -42 6 -48 0 -7 4 -13 9 -13 5 0 7 -4 4 -8
-3 -4 -1 -26 4 -48 5 -21 11 -55 14 -74 3 -19 22 -98 42 -175 19 -77 37 -149
39 -160 2 -11 10 -39 19 -62 8 -24 13 -43 9 -43 -3 0 -1 -6 4 -12 7 -10 40
-102 48 -138 1 -3 6 -16 12 -30 6 -14 17 -45 26 -70 21 -62 74 -196 100 -250
11 -25 22 -47 22 -50 11 -40 174 -364 186 -368 5 -2 9 -10 9 -18 0 -8 8 -27
19 -42 23 -34 110 -179 125 -209 6 -13 14 -23 19 -23 4 0 7 -7 7 -15 0 -8 3
-15 8 -15 4 0 20 -23 37 -50 16 -28 33 -50 39 -50 5 0 7 -3 3 -6 -3 -3 1 -13
8 -22 7 -10 55 -73 107 -142 86 -114 114 -151 143 -184 6 -6 39 -45 75 -86
128 -148 257 -280 272 -280 6 0 9 -3 5 -6 -3 -3 10 -20 30 -37 19 -18 61 -57
94 -87 32 -30 77 -71 100 -90 23 -19 51 -43 63 -54 11 -10 37 -30 56 -45 19
-14 37 -29 40 -32 3 -3 50 -39 105 -80 55 -41 102 -77 103 -81 2 -5 9 -8 16
-8 7 0 21 -9 31 -20 10 -11 22 -20 28 -20 5 0 26 -13 46 -29 20 -16 52 -38 71
-48 19 -11 72 -43 118 -72 46 -28 86 -51 89 -51 3 0 17 -8 31 -19 24 -16 309
-166 322 -169 3 0 37 -15 75 -32 39 -18 104 -45 145 -62 41 -17 86 -35 100
-41 14 -6 27 -11 30 -11 3 -1 19 -6 35 -13 58 -22 70 -26 75 -27 3 -1 66 -21
140 -44 191 -60 183 -58 315 -91 119 -30 147 -36 215 -47 57 -9 75 -12 75 -14
0 -3 20 -7 147 -26 55 -8 90 -12 163 -19 39 -3 76 -8 82 -10 81 -28 766 -27
1008 2 33 3 72 7 88 7 15 1 27 3 27 6 0 3 12 5 28 6 15 0 45 4 67 7 66 12 108
18 145 22 52 6 238 48 375 85 66 17 125 33 130 34 32 7 225 69 250 80 17 8 48
19 70 26 22 7 45 15 50 19 6 3 15 6 20 7 19 4 211 86 303 129 50 25 94 45 97
46 2 0 46 23 97 50 51 28 105 56 121 62 15 6 27 15 27 19 0 4 4 8 10 8 5 0 43
20 83 45 41 25 78 45 81 45 4 0 14 6 21 13 31 27 44 37 50 37 12 0 296 198
315 220 3 3 21 17 40 30 19 13 42 31 51 39 24 23 59 51 63 51 3 0 20 14 38 31
18 17 50 45 71 62 87 72 284 264 384 374 43 47 83 91 88 97 6 6 33 38 60 71
28 33 52 62 55 65 10 10 69 88 134 176 36 49 69 94 73 99 36 47 73 105 73 113
0 6 3 12 8 14 10 4 93 135 167 263 50 86 266 516 267 529 0 3 13 31 28 63 29
59 30 73 4 73 -8 0 -14 5 -14 10 0 6 -3 9 -7 8 -8 -2 -65 25 -448 212 -468
228 -513 250 -522 250 -5 0 -15 6 -21 12 -7 7 -16 13 -20 13 -4 1 -79 36 -167
80 -88 44 -163 78 -167 77 -5 -1 -8 2 -8 8 0 5 -5 10 -12 10 -7 0 -47 18 -90
41 -43 22 -78 36 -78 32 0 -4 -4 -3 -8 2 -4 6 -50 32 -102 57 -194 94 -458
222 -562 273 -58 30 -109 51 -112 48 -3 -4 -6 -2 -6 4 0 9 -34 24 -49 22 -2 0
-7 3 -10 8 -5 8 -111 62 -131 68 -3 0 -29 13 -57 28 -29 15 -56 28 -60 29 -5
1 -64 30 -133 64 -118 58 -418 204 -595 290 -44 21 -82 41 -85 44 -3 3 -14 7
-25 8 -11 2 -22 7 -25 11 -6 10 -137 71 -150 71 -6 0 -10 4 -10 8 0 4 -16 14
-36 21 -31 11 -43 35 -18 37 5 0 63 27 129 59 66 33 122 58 124 56 2 -1 7 1
10 6 3 4 71 40 151 78 80 39 148 74 151 78 3 5 8 7 10 6 2 -2 56 22 119 53
451 220 550 268 558 268 5 0 15 7 22 15 6 8 15 14 18 13 11 -3 166 75 174 86
4 6 8 8 8 4 0 -4 48 17 108 46 59 29 157 77 217 106 61 30 113 58 117 64 4 6
8 7 8 3 0 -5 12 -1 28 7 56 32 624 306 633 306 5 0 9 5 9 10 0 6 5 10 11 10 6
0 71 29 145 65 74 36 144 70 156 75 13 6 30 14 38 20 8 5 114 57 235 116 430
207 510 247 522 256 10 8 9 15 -1 31 -8 12 -63 119 -123 237 -60 118 -120 233
-133 255 -12 22 -34 60 -48 85 -64 113 -242 380 -254 380 -4 0 -8 5 -8 11 0 9
-21 41 -67 99 -64 81 -109 136 -115 138 -4 2 -8 8 -8 14 0 6 -8 18 -17 27 -10
9 -45 48 -78 86 -75 87 -335 349 -433 435 -41 36 -79 70 -85 75 -11 10 -163
132 -197 158 -27 22 -123 92 -146 107 -149 100 -226 150 -233 150 -4 0 -16 9
-26 20 -10 11 -21 20 -26 20 -4 0 -38 19 -75 42 -105 64 -459 240 -581 289
-13 5 -33 13 -45 19 -29 12 -81 33 -90 35 -5 2 -10 4 -13 5 -3 1 -8 3 -12 5
-5 1 -17 5 -28 9 -126 48 -272 96 -292 96 -11 0 -23 4 -29 9 -8 8 -289 80
-379 97 -50 10 -54 11 -57 14 -2 1 -12 3 -23 4 -11 2 -38 6 -60 10 -63 12 -86
15 -140 21 -27 3 -61 8 -75 11 -37 7 -67 11 -250 29 -52 6 -667 15 -672 10z"/>
</g>
</svg>
